<mxfile host="app.diagrams.net" modified="2023-05-27T07:30:29.754Z" agent="Mozilla/5.0 (Macintosh; Intel Mac OS X 10_15_7) AppleWebKit/605.1.15 (KHTML, like Gecko) Version/15.1 Safari/605.1.15" version="21.3.4" etag="8x-jyGvqfj415OMFafqx" type="github">
  <diagram name="Page-1" id="_zvvXsHfhflo3vjCpBME">
    <mxGraphModel>
      <root>
        <mxCell id="0" />
        <mxCell id="1" parent="0" />
      </root>
    </mxGraphModel>
  </diagram>
</mxfile>
